<svg width="160" height="48" viewBox="0 0 160 48" fill="none" xmlns="http://www.w3.org/2000/svg">
<g clip-path="url(#clip0_5431_5092)">
<path d="M21.0227 19.6308L16.7032 23.9319L21.9564 34.948C19.334 34.948 16.8452 34.9606 14.3547 34.923C14.171 34.923 13.9305 34.5986 13.8202 34.3674C12.6026 31.8226 11.4049 29.267 10.2006 26.7151C10.0637 26.4265 9.91836 26.1434 9.66614 25.6398C8.80092 28.8656 7.99582 31.8656 7.17236 34.9122H0C0.452657 33.1434 0.896962 31.4068 1.33626 29.6667C2.14803 26.509 2.96649 23.3513 3.76323 20.1882C3.87848 19.7276 4.02046 19.4928 4.52991 19.4946C9.87493 19.5179 15.2099 19.5108 20.55 19.5144C20.6101 19.5215 20.6635 19.543 21.0227 19.6308ZM137.664 19.7491H156.342C155.841 21.5825 155.356 23.3746 154.805 25.1398C154.745 25.3316 154.272 25.4695 153.99 25.4713C150.984 25.4964 147.977 25.5197 144.97 25.4713C144.227 25.457 143.982 25.7491 143.81 26.457C143.183 29.0251 142.502 31.5753 141.84 34.1326C141.773 34.3871 141.692 34.638 141.613 34.905H133.96C135.199 29.8136 136.43 24.7868 137.664 19.7491ZM113.597 34.923C114.845 29.8262 116.072 24.8154 117.31 19.767H135.999C135.488 21.5699 135.01 23.3405 134.464 25.086C134.401 25.2885 133.963 25.4678 133.694 25.4695C130.659 25.4964 127.626 25.5161 124.593 25.4695C123.891 25.457 123.634 25.7043 123.465 26.3979C122.827 29.0233 122.144 31.6362 121.444 34.242C121.372 34.5072 121.065 34.8943 120.863 34.8979C118.474 34.9409 116.087 34.923 113.597 34.923V34.923ZM92.1866 19.733H99.4576C98.5923 22.9588 97.7438 26.1129 96.8485 29.4427H107.762C106.309 31.3692 105.028 33.0807 103.725 34.7724C103.627 34.9014 103.379 34.9516 103.202 34.9516H88.4301C88.3568 34.9358 88.2856 34.9105 88.218 34.8764L92.1866 19.733ZM31.7077 34.8638L35.6714 19.742H42.9456C42.082 22.9516 41.2302 26.1165 40.3399 29.4319H51.2271C50.6642 30.1954 50.2516 30.7635 49.8323 31.3244C49.0473 32.371 48.2756 33.4283 47.4605 34.4463C47.2701 34.6846 46.9327 34.9283 46.6621 34.9301C41.7664 34.957 36.869 34.9463 31.9733 34.9409C31.8829 34.9231 31.7941 34.8973 31.7077 34.8638V34.8638ZM78.7723 19.7903C78.4382 20.7796 78.0825 21.7133 77.7985 22.6703C77.3709 24.1165 76.9032 25.5574 76.6109 27.0376C76.2768 28.6936 76.945 29.4767 78.5151 29.4839C81.6018 29.4982 84.6953 29.4839 87.8338 29.4839C87.842 29.6672 87.8325 29.851 87.8054 30.0323C87.4029 31.4893 87.0103 32.9516 86.5577 34.3907C86.4956 34.5299 86.4035 34.6512 86.2891 34.7447C86.1746 34.8382 86.0411 34.9011 85.8996 34.9283C82.1981 34.9606 78.4934 35.043 74.7953 34.9283C71.5448 34.8208 68.6001 31.8101 69.6473 27.6703C70.2587 25.2527 70.7848 22.8118 71.3444 20.3799C71.4346 19.9875 71.5114 19.6739 72.0125 19.681C74.1271 19.7133 76.2434 19.6954 78.3597 19.7007C78.4994 19.7176 78.6375 19.7476 78.7723 19.7903V19.7903Z" fill="black"/>
<path d="M53.4068 28.5019H47.9165C48.6815 25.5162 49.4197 22.6524 50.1564 19.7599H57.3621C56.5387 22.9857 55.7285 26.1506 54.8884 29.4374H65.6636C64.608 30.837 63.5841 32.0162 62.7589 33.3352C61.9338 34.6542 60.9533 35.0449 59.4985 34.9929C56.0242 34.8657 52.5449 34.9517 48.8585 34.9517C50.3952 32.7743 51.8467 30.7133 53.4068 28.5019ZM30.0657 34.9284H22.8633C22.9836 34.4069 23.0855 33.9302 23.1974 33.4589C24.2848 29.147 25.3889 24.8406 26.4378 20.527C26.5965 19.8728 26.8637 19.7044 27.46 19.7151C29.5697 19.7528 31.6809 19.7295 33.9192 19.7295C32.6264 24.828 31.3502 29.8639 30.0657 34.9284ZM137.786 13.0592C137.334 14.6399 136.933 16.1506 136.45 17.6291C136.375 17.8567 135.904 18.0574 135.615 18.061C131.773 18.0879 127.931 18.0789 124.098 18.0789H117.729C118.143 16.3567 118.534 14.7259 118.935 13.061L137.786 13.0592ZM158.153 13.0001C157.682 14.6596 157.289 16.1488 156.816 17.6076C156.74 17.8388 156.278 18.0556 155.995 18.0592C153.21 18.0933 150.427 18.0789 147.643 18.0789H138.089C138.485 16.4302 138.83 14.8746 139.258 13.3442C139.31 13.165 139.791 13.0162 140.075 13.0144C145.503 12.9965 150.932 12.9917 156.36 13.0001H158.153ZM111.88 34.9212H105.397L110.171 28.4589H106.296C107.041 25.4624 107.749 22.6148 108.456 19.7689H115.638C114.379 24.8567 113.132 29.88 111.88 34.9212ZM92.1181 13.0718C91.7072 14.7581 91.3097 16.3854 90.9022 18.0556H71.9741C72.1244 15.932 74.5197 13.4427 76.7696 13.0915C77.0717 13.0378 77.377 13.0072 77.6832 13.0001H91.5335C91.6855 13.0001 91.8442 13.0395 92.1181 13.0718ZM26.6884 13.0162C25.3287 14.5843 23.9373 16.2044 22.5226 17.7976C22.3374 17.9708 22.1001 18.0663 21.8545 18.0664C18.8262 18.0915 15.7962 18.0933 12.7679 18.0951C12.7245 18.0951 12.6827 18.0431 12.5591 17.9607C14.1376 16.3585 15.701 14.7653 17.2744 13.1972C17.4558 13.066 17.6725 13.003 17.8908 13.018C20.8088 13.0073 23.7369 13.018 26.6466 13.018C26.7251 13.0001 26.8003 13.0449 26.6884 13.0162ZM27.0809 18.1076C27.4918 16.4947 27.8693 14.9732 28.2802 13.4589C28.3286 13.2797 28.5558 13.0288 28.7028 13.027C30.9744 13.0001 33.2394 13.0001 35.6112 13.0001C35.1886 14.6435 34.8128 16.1632 34.3952 17.6685C34.3487 17.7756 34.279 17.8691 34.1917 17.9411C34.1045 18.0132 34.0025 18.0617 33.8941 18.0825C31.6425 18.1184 29.3976 18.1076 27.0809 18.1076ZM4.20752 18.1076C4.62176 16.484 5.00593 14.9338 5.42685 13.3944C5.47019 13.2962 5.53509 13.2109 5.61598 13.1456C5.69687 13.0804 5.79132 13.0372 5.8912 13.0198C8.13778 13.0001 10.3827 13.0001 12.7345 13.0001C12.3102 14.6596 11.9261 16.2044 11.5051 17.7384C11.4598 17.8345 11.3934 17.9173 11.3116 17.9797C11.2299 18.0422 11.1352 18.0824 11.0358 18.0969C8.78587 18.1166 6.53428 18.1076 4.20752 18.1076ZM59.1377 13.009L57.8231 18.0754H50.6107C51.0166 16.4804 51.4041 14.932 51.8183 13.3926C51.8517 13.3041 51.9043 13.2254 51.9717 13.163C52.0391 13.1007 52.1193 13.0565 52.2058 13.0341C54.4775 13.0001 56.7474 13.009 59.1377 13.009ZM92.5675 18.1076C92.9867 16.4768 93.3726 14.9266 93.7968 13.3872C93.8409 13.29 93.9064 13.2058 93.9876 13.1418C94.0687 13.0778 94.1632 13.0359 94.2628 13.0198C96.5061 13.0001 98.751 13.0001 101.098 13.0001C100.674 14.6632 100.289 16.208 99.8684 17.7402C99.8232 17.8367 99.7566 17.9198 99.6745 17.9823C99.5924 18.0448 99.4972 18.0847 99.3974 18.0987C97.1475 18.1166 94.8976 18.1076 92.5675 18.1076ZM43.273 18.0825H36.0522C36.4681 16.4696 36.8573 14.9033 37.2865 13.3513C37.3376 13.2577 37.4089 13.1786 37.4943 13.1206C37.5798 13.0627 37.6769 13.0275 37.7776 13.018C39.9958 13.0001 42.214 13.0001 44.5708 13.0001C44.1232 14.7564 43.7022 16.4051 43.273 18.0825ZM116.087 18.0843H108.866C109.174 16.8746 109.463 15.7205 109.758 14.5682C110.159 13.0001 110.161 13.0001 111.644 13.0001H117.373C116.922 14.751 116.512 16.3944 116.087 18.0843Z" fill="black"/>
</g>
<defs>
<clipPath id="clip0_5431_5092">
<rect width="160" height="22" fill="white" transform="translate(0 13)"/>
</clipPath>
</defs>
</svg>
